<svg width="18" height="16" viewBox="0 0 18 16" fill="none" xmlns="http://www.w3.org/2000/svg">
<path fill-rule="evenodd" clip-rule="evenodd" d="M7.16667 4.33333C7.16667 6.17428 8.65905 7.66667 10.5 7.66667C12.3409 7.66667 13.8333 6.17428 13.8333 4.33333C13.8333 2.49238 12.3409 1 10.5 1C8.65905 1 7.16667 2.49238 7.16667 4.33333ZM10.4861 9.33333C6.55159 9.33333 3.32355 11.3554 3.00054 15.3327C2.98295 15.5493 3.39726 16 3.60625 16H17.3722C17.9983 16 18.008 15.4962 17.9983 15.3333C17.7541 11.2443 14.476 9.33333 10.4861 9.33333Z" fill="#EE6F34"/>
<path opacity="0.2" fill-rule="evenodd" clip-rule="evenodd" d="M5.64807 13C8.76741 13 10.3548 7.475 7.53076 5.2C4.70672 2.925 9.39497 0 6.27563 0C3.15629 0 0 3.91913 0 7.15C0 10.3809 2.52873 13 5.64807 13Z" fill="#EE6F34"/>
</svg>
