<svg width="438" height="222" viewBox="0 0 438 222" fill="none" xmlns="http://www.w3.org/2000/svg">
<rect width="438" height="222" fill="#E6F9F2"/>
<mask id="mask0_2427_10228" style="mask-type:alpha" maskUnits="userSpaceOnUse" x="0" y="0" width="438" height="222">
<rect width="438" height="222" fill="white"/>
</mask>
<g mask="url(#mask0_2427_10228)">
<path d="M419.434 9.66341C419.434 7.96577 417.996 6.5293 416.296 6.5293C414.596 6.5293 413.158 7.96577 413.158 9.66341C413.158 10.3164 413.943 10.7081 414.858 10.8387V13.8422H417.473V10.8387C418.65 10.5775 419.434 10.1858 419.434 9.66341Z" fill="#FFD15C"/>
<path d="M356.414 35.4869C357.722 34.4422 357.983 32.4834 356.807 31.1775C355.761 29.8716 353.799 29.6104 352.492 30.7857C351.969 31.1775 352.23 31.961 352.753 32.8751L350.4 34.7034L352.1 36.7928L354.453 34.8339C355.107 35.4869 355.891 35.8787 356.414 35.4869Z" fill="#FFD15C"/>
<path fill-rule="evenodd" clip-rule="evenodd" d="M412.105 31.6024C412.105 30.0354 413.412 28.7295 414.981 28.7295C416.681 28.7295 417.989 30.0354 417.858 31.6024C417.858 33.1695 416.55 34.4754 414.981 34.4754C413.412 34.4754 412.105 33.1695 412.105 31.6024ZM413.151 31.6024C413.151 32.6471 413.935 33.4307 414.981 33.4307C416.027 33.4307 416.812 32.6471 416.812 31.6024C416.812 30.5577 416.027 29.7742 414.981 29.7742C413.935 29.7742 413.151 30.5577 413.151 31.6024Z" fill="#FF7058"/>
<path fill-rule="evenodd" clip-rule="evenodd" d="M360.86 6.79042C360.86 5.22336 362.167 3.91748 363.736 3.91748C365.436 3.91748 366.743 5.22336 366.613 6.79042C366.613 8.35748 365.305 9.66336 363.736 9.66336C362.167 9.66336 360.86 8.35748 360.86 6.79042ZM361.906 6.79042C361.906 7.83513 362.69 8.61866 363.736 8.61866C364.782 8.61866 365.567 7.83513 365.567 6.79042C365.567 5.74572 364.782 4.96219 363.736 4.96219C362.69 4.96219 361.906 5.74572 361.906 6.79042Z" fill="#FF7058"/>
<path fill-rule="evenodd" clip-rule="evenodd" d="M402.698 46.6376C402.698 45.0705 404.006 43.7646 405.575 43.7646C407.144 43.7646 408.451 45.0705 408.451 46.6376C408.451 48.2046 407.144 49.5105 405.575 49.5105C404.006 49.5105 402.698 48.2046 402.698 46.6376ZM403.744 46.507C403.744 47.5517 404.529 48.3352 405.575 48.3352C406.621 48.3352 407.405 47.5517 407.405 46.507C407.405 45.4623 406.621 44.6788 405.575 44.6788C404.529 44.6788 403.744 45.4623 403.744 46.507Z" fill="#FF7058"/>
<path d="M140.552 266.4C140.552 266.4 -81.7165 231.141 219 211.553C519.716 191.965 426.233 290.559 392.892 143.647C359.552 -3.26481 466.11 233.1 431.463 124.059C396.815 15.0175 641.964 92.7175 470.033 10.447C298.101 -71.8236 428.194 146.259 251.687 80.3117C75.1791 14.3646 99.3671 -104.471 99.3671 -104.471" stroke="#868686" stroke-linecap="round" stroke-dasharray="5"/>
<path d="M438.082 75.5372C453.012 81.8416 460.254 99.1326 454.128 114.271C447.904 129.652 430.421 136.97 415.151 130.81C400.001 124.699 392.54 107.601 398.424 92.3646L426.663 103.756L438.082 75.5372Z" fill="#FF7058"/>
<path d="M426.663 103.756L436.023 80.6239C448.166 85.8039 453.915 99.816 448.965 112.048C443.917 124.522 429.62 130.589 417.137 125.553C404.896 120.616 398.928 106.797 403.514 94.418L426.663 103.756Z" fill="#FFD15C"/>
<path d="M415.817 115.576C416.223 114.572 415.738 113.431 414.734 113.026C413.73 112.621 412.587 113.106 412.181 114.109C411.775 115.112 412.26 116.254 413.264 116.659C414.268 117.064 415.411 116.579 415.817 115.576Z" fill="#F8B64C"/>
<path d="M407.392 101.894C406.18 101.405 404.94 102.032 404.499 103.122C404.009 104.333 404.635 105.572 405.726 106.012C406.09 106.158 406.528 105.772 406.943 105.094L409.004 105.925L409.739 104.108L407.678 103.277C407.923 102.672 407.877 102.09 407.392 101.894Z" fill="#F2F2F2"/>
<path d="M438.966 119.705C438.533 118.685 437.321 118.196 436.299 118.63C435.278 119.063 434.788 120.274 435.221 121.294C435.366 121.634 435.899 121.709 436.652 121.59L437.446 123.46L439.027 122.689L438.233 120.819C438.793 120.481 439.11 120.045 438.966 119.705Z" fill="#F2F2F2"/>
<path fill-rule="evenodd" clip-rule="evenodd" d="M435.668 104.151C434.578 103.711 434.073 102.521 434.514 101.431C434.955 100.341 436.146 99.8355 437.237 100.275C438.328 100.715 438.833 101.905 438.392 102.995C437.951 104.086 436.759 104.591 435.668 104.151ZM435.963 103.425C436.69 103.718 437.37 103.429 437.665 102.702C437.91 102.097 437.67 101.295 436.943 101.002C436.216 100.709 435.535 100.998 435.241 101.725C434.947 102.451 435.235 103.131 435.963 103.425Z" fill="#FF7058"/>
<path fill-rule="evenodd" clip-rule="evenodd" d="M428.536 123.526C427.566 123.135 427.061 121.945 427.453 120.976C427.846 120.007 428.988 119.623 430.007 119.893C430.976 120.284 431.481 121.474 431.089 122.443C430.697 123.412 429.505 123.917 428.536 123.526ZM428.83 122.799C429.436 123.044 430.117 122.755 430.362 122.149C430.607 121.544 430.318 120.864 429.712 120.619C429.106 120.375 428.426 120.664 428.181 121.269C427.935 121.875 428.224 122.555 428.83 122.799Z" fill="#FF7058"/>
<path d="M417.095 77.2192L414.93 72.1198C421.689 69.3515 429.409 69.0841 436.729 71.8954L426.043 98.2971L417.095 77.2192Z" fill="#FF7058"/>
<path d="M426.044 98.2975L417.096 77.2192C422.493 75.0289 428.756 74.8783 434.622 77.1033L426.044 98.2975Z" fill="#FFD15C"/>
<path d="M432.069 78.1902C431.685 77.0491 430.401 76.3903 429.258 76.7748C428.116 77.1594 427.456 78.4428 427.84 79.5839C427.935 80.045 428.59 80.1683 429.343 80.0493L430.039 82.1615L431.813 81.6091L431.117 79.4969C431.726 79.038 432.213 78.5302 432.069 78.1902Z" fill="#F2F2F2"/>
<path fill-rule="evenodd" clip-rule="evenodd" d="M425.589 91.0701C424.499 90.6302 423.994 89.4402 424.435 88.3502C424.876 87.2601 426.067 86.7544 427.158 87.1942C428.249 87.6341 428.754 88.8241 428.313 89.9142C427.871 91.0043 426.68 91.51 425.589 91.0701ZM426.005 90.3923C426.732 90.6856 427.413 90.3966 427.707 89.6699C427.952 89.0643 427.591 88.2143 426.985 87.9699C426.379 87.7255 425.577 87.9656 425.283 88.6924C425.038 89.298 425.278 90.0991 426.005 90.3923Z" fill="#FF7058"/>
<path fill-rule="evenodd" clip-rule="evenodd" d="M422.704 82.8636C421.614 82.4237 421.109 81.2337 421.55 80.1436C421.991 79.0535 423.182 78.5478 424.273 78.9877C425.364 79.4276 425.869 80.6176 425.428 81.7077C424.986 82.7978 423.795 83.3035 422.704 82.8636ZM423.12 82.1858C423.726 82.4302 424.528 82.1901 424.822 81.4634C425.116 80.7366 424.706 80.0078 424.1 79.7634C423.373 79.4701 422.692 79.7591 422.398 80.4858C422.104 81.2126 422.393 81.8925 423.12 82.1858Z" fill="#FF7058"/>
<path d="M437.751 112.596C438.266 111.325 437.652 109.879 436.38 109.366C435.108 108.853 433.66 109.468 433.146 110.738C432.632 112.009 433.246 113.455 434.518 113.968C435.789 114.481 437.237 113.867 437.751 112.596Z" fill="#F8B64C"/>
<path d="M443.457 91.5186C443.972 90.2478 443.358 88.8016 442.086 88.2886C440.814 87.7756 439.366 88.39 438.852 89.6608C438.338 90.9317 438.952 92.3778 440.223 92.8908C441.495 93.4038 442.943 92.7895 443.457 91.5186Z" fill="#F8B64C"/>
<path d="M414.201 78.4422L423.151 99.5234L396.73 88.8672C399.792 81.6484 405.348 76.2806 412.036 73.3419L414.201 78.4422Z" fill="#FF7058"/>
<path d="M414.202 78.4423L423.152 99.5239L401.943 90.9692C404.417 85.2039 408.827 80.9242 414.202 78.4423Z" fill="#FFD15C"/>
<path fill-rule="evenodd" clip-rule="evenodd" d="M411.478 85.5164C410.388 85.0765 409.882 83.8865 410.324 82.7964C410.765 81.7063 411.956 81.2006 413.047 81.6405C414.137 82.0804 414.643 83.2704 414.201 84.3605C413.76 85.4506 412.569 85.9563 411.478 85.5164ZM411.772 84.7897C412.499 85.083 413.18 84.794 413.474 84.0673C413.768 83.3405 413.48 82.6606 412.753 82.3673C412.147 82.1229 411.345 82.363 411.051 83.0897C410.757 83.8165 411.045 84.4965 411.772 84.7897Z" fill="#FF7058"/>
<path d="M417.644 92.9322C418.158 91.6612 417.544 90.2151 416.272 89.7022C415.001 89.1893 413.553 89.8038 413.038 91.0747C412.524 92.3457 413.138 93.7918 414.41 94.3047C415.681 94.8176 417.129 94.2031 417.644 92.9322Z" fill="#F8B64C"/>
<path d="M407.178 86.7371C407.493 87.0048 407.588 87.4659 407.32 87.7804C406.466 88.8448 406.654 90.4703 407.768 91.2013C408.082 91.469 408.178 91.9301 407.909 92.2445C407.641 92.559 407.18 92.6546 406.865 92.3868C405.171 90.9993 404.865 88.6216 406.134 86.8794C406.402 86.5649 406.864 86.4693 407.178 86.7371Z" fill="#F8B64C"/>
<path d="M438.107 94.2885C437.96 94.6519 437.498 94.7474 437.134 94.6008C436.02 93.8696 434.465 94.2285 433.684 95.463C433.537 95.8263 433.075 95.9219 432.712 95.7752C432.348 95.6285 432.253 95.1674 432.4 94.8041C433.547 93.0129 435.905 92.414 437.746 93.4385C438.28 93.5129 438.375 93.9741 438.107 94.2885Z" fill="#F8B64C"/>
<path d="M431.542 103.894C431.921 102.957 431.469 101.892 430.531 101.514C429.594 101.136 428.528 101.588 428.149 102.525C427.77 103.461 428.222 104.527 429.159 104.905C430.096 105.283 431.163 104.83 431.542 103.894Z" fill="#F8B64C"/>
<path d="M423.922 123.776C423.36 124.817 422.096 125.153 421.103 124.47C420.062 123.909 419.727 122.647 420.41 121.655C420.557 121.292 421.212 121.415 421.867 121.538L422.845 119.82L424.322 120.697L423.295 122.537C423.852 122.903 424.19 123.462 423.922 123.776Z" fill="#F2F2F2"/>
<path d="M420.582 114.259C420.435 114.623 420.7 115.012 421.113 115.037C422.302 115.235 423.049 116.523 422.851 117.711C422.704 118.074 422.969 118.463 423.382 118.488C423.745 118.635 424.135 118.369 424.161 117.957C424.653 116.043 423.447 114.147 421.531 113.656C420.997 113.582 420.607 113.847 420.582 114.259Z" fill="#F8B64C"/>
<path d="M416.96 101.248C417.104 101.588 416.908 102.072 416.447 102.168C415.134 102.625 414.425 104.029 414.881 105.34C415.026 105.68 414.83 106.164 414.368 106.26C414.028 106.404 413.543 106.208 413.448 105.747C412.752 103.635 413.876 101.554 415.869 100.808C416.452 100.761 416.816 100.908 416.96 101.248Z" fill="#F8B64C"/>
<path d="M426.119 106.493C426.264 106.833 426.068 107.318 425.606 107.413C424.294 107.87 423.584 109.274 424.041 110.585C424.185 110.925 423.989 111.409 423.527 111.505C423.187 111.649 422.702 111.454 422.607 110.993C421.911 108.881 423.036 106.799 425.029 106.053C425.66 105.885 425.975 106.153 426.119 106.493Z" fill="#F8B64C"/>
<path d="M354.061 141.01V141.01H348.831C348.308 141.01 347.785 140.487 347.785 139.965C347.785 139.443 348.177 138.92 348.831 138.92V138.92H354.061C354.584 138.92 355.107 139.443 355.107 139.965C354.976 140.618 354.584 141.01 354.061 141.01Z" fill="#CD807D"/>
<path d="M364.128 125.47C363.736 125.47 363.475 125.209 363.213 124.948L360.86 120.246C360.598 119.724 360.86 119.202 361.252 118.941C361.775 118.679 362.298 118.941 362.559 119.332L364.913 124.034C365.305 124.425 365.174 125.47 364.128 125.47Z" fill="#CD807D"/>
<path d="M356.676 159.423L354.061 154.852C353.799 154.33 353.93 153.807 354.453 153.546C354.976 153.285 355.499 153.416 355.761 153.938L358.376 158.508C358.637 159.031 358.506 159.553 357.983 159.814C357.591 160.076 356.937 159.684 356.676 159.423Z" fill="#84DBFF"/>
<path d="M349.616 154.33C350.554 154.33 351.315 153.57 351.315 152.632C351.315 151.695 350.554 150.935 349.616 150.935C348.677 150.935 347.916 151.695 347.916 152.632C347.916 153.57 348.677 154.33 349.616 154.33Z" fill="#FFD15C"/>
<path d="M352.23 129.649C353.169 129.649 353.93 128.889 353.93 127.951C353.93 127.013 353.169 126.253 352.23 126.253C351.292 126.253 350.531 127.013 350.531 127.951C350.531 128.889 351.292 129.649 352.23 129.649Z" fill="#84DBFF"/>
<path fill-rule="evenodd" clip-rule="evenodd" d="M368.899 202.029C367.633 201.511 366.366 200.994 365.118 200.245L364.672 199.977C352.9 192.914 349.06 177.511 356.138 165.748C363.269 153.895 378.548 150.086 390.409 157.202L390.855 157.47C392.103 158.219 393.209 159.004 394.207 159.967C402.98 167.778 405.216 181.006 398.943 191.432C392.669 201.858 379.924 206.097 368.899 202.029ZM366.932 187.143C367.823 188.284 368.911 189.301 370.16 190.05L370.516 190.264C376.937 194.116 385.362 192.016 389.223 185.6C393.083 179.183 391.074 170.822 384.564 166.916L384.208 166.702C382.87 165.899 381.55 165.471 380.122 165.221C374.698 164.149 368.914 166.501 365.858 171.58C362.802 176.66 363.438 182.863 366.932 187.143Z" fill="#F1543F"/>
<path d="M380.119 165.224C381.655 162.872 383.941 161.09 386.797 160.378C388.511 159.951 389.993 158.9 390.85 157.474C392.099 158.223 393.151 159.097 394.203 159.971C392.684 162.092 390.506 163.695 387.793 164.372C386.365 164.728 385.044 165.511 384.168 166.563C382.866 165.903 381.546 165.474 380.119 165.224Z" fill="white"/>
<path d="M365.122 200.24C365.891 198.761 366.213 197.014 365.787 195.303C365.022 192.54 365.524 189.688 366.936 187.139C367.827 188.28 368.826 189.243 370.163 190.046C369.591 191.401 369.483 192.791 369.928 194.271C370.603 196.98 370.208 199.654 369.046 201.989C367.637 201.507 366.371 200.99 365.122 200.24Z" fill="white"/>
<path d="M365.781 195.302C365.105 192.593 365.518 189.687 366.93 187.139C363.437 182.86 362.853 176.567 365.856 171.577C368.911 166.499 374.695 164.148 380.118 165.219C381.655 162.867 383.941 161.086 386.796 160.374C388.51 159.946 389.903 158.842 390.849 157.47C390.671 157.363 390.582 157.309 390.404 157.202C378.544 150.086 363.266 153.894 356.136 165.745C349.006 177.596 352.811 192.855 364.671 199.972C364.849 200.079 364.938 200.133 365.116 200.24C365.885 198.76 366.208 197.014 365.781 195.302Z" fill="#FFD15C"/>
<path d="M371.801 195.395C371.855 195.306 371.908 195.217 372.051 195.182C372.337 195.11 372.515 195.217 372.497 195.449L373.066 197.731C373.137 198.016 373.03 198.195 372.798 198.177C372.513 198.248 372.334 198.141 372.352 197.909L371.783 195.627C371.783 195.627 371.748 195.485 371.801 195.395Z" fill="#84DBFF"/>
<path d="M387.666 196.671C387.809 196.635 387.898 196.689 387.987 196.742C388.165 196.849 388.237 197.135 388.04 197.259L386.682 199.113C386.575 199.291 386.29 199.362 386.165 199.166C385.987 199.059 385.916 198.774 386.112 198.649L387.47 196.796C387.38 196.742 387.523 196.707 387.666 196.671Z" fill="white"/>
<path d="M380.989 200.303C381.024 200.445 380.971 200.535 380.917 200.624C380.81 200.802 380.524 200.873 380.399 200.677L378.544 199.321C378.366 199.214 378.295 198.929 378.491 198.804C378.599 198.626 378.884 198.555 379.009 198.751L380.864 200.107C380.918 200.018 380.953 200.16 380.989 200.303Z" fill="#FFD15C"/>
<path d="M392.635 184.981C392.581 185.07 392.527 185.159 392.563 185.302C392.634 185.587 392.812 185.694 393.009 185.569L395.294 185C395.579 184.929 395.687 184.751 395.562 184.554C395.437 184.358 395.312 184.162 395.116 184.287L392.885 184.767C392.742 184.803 392.688 184.892 392.635 184.981Z" fill="#84DBFF"/>
<path d="M391.738 191.718C391.792 191.629 391.846 191.54 391.988 191.504C392.274 191.433 392.452 191.54 392.434 191.772L393.003 194.054C393.074 194.339 392.967 194.517 392.735 194.499C392.45 194.571 392.271 194.464 392.289 194.232L391.72 191.95C391.72 191.95 391.685 191.807 391.738 191.718Z" fill="#FFD15C"/>
<path d="M399.866 180.226C400.008 180.19 400.098 180.244 400.187 180.297C400.365 180.404 400.436 180.689 400.24 180.814L398.882 182.667C398.775 182.845 398.489 182.917 398.365 182.72C398.186 182.613 398.115 182.328 398.312 182.204L399.669 180.35C399.723 180.261 399.866 180.226 399.866 180.226Z" fill="#FFD15C"/>
<path d="M398.585 173.879C398.62 174.022 398.566 174.111 398.513 174.2C398.406 174.379 398.12 174.45 397.995 174.254L396.087 172.987C395.908 172.88 395.837 172.595 396.034 172.47C396.141 172.292 396.426 172.22 396.551 172.417L398.406 173.772C398.549 173.737 398.585 173.879 398.585 173.879Z" fill="white"/>
<path d="M393.163 167.352C393.11 167.441 393.056 167.53 393.092 167.673C393.163 167.958 393.341 168.065 393.538 167.941L395.822 167.371C396.108 167.3 396.215 167.122 396.09 166.925C396.019 166.64 395.841 166.533 395.645 166.658L393.36 167.227C393.36 167.227 393.217 167.263 393.163 167.352Z" fill="#84DBFF"/>
<path d="M391.077 163.554L391.969 164.089L393.738 161.148L392.846 160.613C391.419 159.757 390.296 158.598 389.226 157.349C388.923 157.046 388.62 156.743 388.12 156.564C386.943 156.101 385.658 156.421 384.836 157.383C383.8 158.702 384.208 160.645 385.635 161.502C385.992 161.716 386.402 161.841 386.724 161.912C388.205 162.073 389.739 162.751 391.077 163.554Z" fill="#F1543F"/>
<path d="M388.415 167.777L389.396 168.365L390.683 166.227L389.702 165.638C388.81 165.103 388.079 164.3 387.348 163.498C387.134 163.248 386.831 162.945 386.51 162.873C385.743 162.534 384.743 162.784 384.171 163.532C383.439 164.548 383.705 165.921 384.686 166.51C384.954 166.67 385.186 166.688 385.507 166.76C386.524 166.885 387.523 167.242 388.415 167.777Z" fill="#F1543F"/>
<path d="M369.298 201.169L369.923 201.544L370.78 200.118L370.156 199.743C369.532 199.369 369.015 198.816 368.498 198.263C368.373 198.067 368.105 197.906 367.927 197.799C367.338 197.567 366.713 197.799 366.303 198.28C365.784 198.939 365.944 199.884 366.658 200.312C366.836 200.42 367.014 200.527 367.157 200.491C367.942 200.598 368.674 200.795 369.298 201.169Z" fill="#F1543F"/>
<path d="M369.604 197.836L370.495 198.371L371.729 196.321L370.837 195.786C369.945 195.251 369.214 194.449 368.572 193.7C368.358 193.45 368.055 193.147 367.734 193.075C366.967 192.736 365.967 192.985 365.449 193.645C364.716 194.661 365.036 195.944 366.018 196.533C366.285 196.694 366.517 196.712 366.749 196.73C367.713 196.944 368.712 197.301 369.604 197.836Z" fill="#F1543F"/>
</g>
</svg>
