<svg width="24" height="24" viewBox="0 0 24 24" fill="none" xmlns="http://www.w3.org/2000/svg">
<path fill-rule="evenodd" clip-rule="evenodd" d="M8.91809 9.50002L12 5.80173L15.0819 9.50002H8.91809ZM6.99998 9.50002C6.99988 9.31179 7.06322 9.12245 7.19315 8.96653L11.3598 3.96653C11.693 3.56674 12.307 3.56674 12.6402 3.96653L16.8069 8.96653C16.9368 9.12245 17.0001 9.31179 17 9.50002H19.0833C19.5436 9.50002 19.9167 9.87312 19.9167 10.3334C19.9167 10.4434 19.8949 10.5523 19.8526 10.6539L16.8077 17.9616C16.4195 18.8932 15.5093 19.5 14.5 19.5H9.5C8.49075 19.5 7.58048 18.8932 7.19231 17.9616L4.14744 10.6539C3.97042 10.229 4.17132 9.74114 4.59615 9.56412C4.69771 9.52181 4.80665 9.50002 4.91667 9.50002H6.99998ZM12 16.1667C12.9205 16.1667 13.6667 15.4205 13.6667 14.5C13.6667 13.5795 12.9205 12.8334 12 12.8334C11.0795 12.8334 10.3333 13.5795 10.3333 14.5C10.3333 15.4205 11.0795 16.1667 12 16.1667Z" fill="#010F07"/>
</svg>
