<svg width="18" height="11" viewBox="0 0 18 11" fill="none" xmlns="http://www.w3.org/2000/svg">
<path fill-rule="evenodd" clip-rule="evenodd" d="M12.6 11C9.61766 11 7.2 8.53757 7.2 5.5C7.2 2.46243 9.61766 0 12.6 0C15.5823 0 18 2.46243 18 5.5C18 8.53757 15.5823 11 12.6 11ZM12.5778 2.1389H12.6285C12.7826 2.1389 12.9117 2.25785 12.927 2.41406L13.2 5.19446L15.1488 6.32871C15.2423 6.38311 15.3 6.48435 15.3 6.594V6.72224C15.3 6.85113 15.1974 6.95562 15.0709 6.95562C15.0505 6.95562 15.0302 6.95285 15.0106 6.9474L12.2392 6.17757C12.1004 6.13901 12.008 6.00548 12.019 5.85935L12.2787 2.42102C12.2907 2.26183 12.421 2.1389 12.5778 2.1389Z" fill="#EE6F34"/>
<path d="M5.1 1.22224H2.1C1.60295 1.22224 1.2 1.63264 1.2 2.1389C1.2 2.64517 1.60295 3.05557 2.1 3.05557H5.1C5.59706 3.05557 6 2.64517 6 2.1389C6 1.63264 5.59706 1.22224 5.1 1.22224Z" fill="#EE6F34"/>
<path d="M5.1 8.55557H2.1C1.60295 8.55557 1.2 8.96598 1.2 9.47224C1.2 9.9785 1.60295 10.3889 2.1 10.3889H5.1C5.59706 10.3889 6 9.9785 6 9.47224C6 8.96598 5.59706 8.55557 5.1 8.55557Z" fill="#EE6F34"/>
<path d="M0.9 4.8889H3.3C3.79706 4.8889 4.2 5.29931 4.2 5.80557C4.2 6.31183 3.79706 6.72224 3.3 6.72224H0.9C0.402944 6.72224 0 6.31183 0 5.80557C0 5.29931 0.402944 4.8889 0.9 4.8889Z" fill="#EE6F34"/>
</svg>
