<svg width="315" height="171" viewBox="0 0 315 171" fill="none" xmlns="http://www.w3.org/2000/svg">
<path d="M10.8121 116.638C7.11552 109.045 6.10736 101.508 7.78763 94.0267C9.4679 86.5456 12.9965 79.4553 18.3733 72.7558C23.8622 65.9446 30.7513 59.6359 39.0406 53.8297C47.442 47.9118 56.4034 42.7197 65.925 38.2534C75.4465 33.7871 85.1921 30.1582 95.1617 27.3667C105.131 24.5752 114.485 22.9004 123.222 22.3421C131.96 21.7838 139.633 22.3979 146.242 24.1844C152.963 25.971 157.78 29.2649 160.692 34.0662C161.588 35.6294 161.812 37.1926 161.364 38.7558C160.916 40.3191 160.02 41.8823 158.676 43.4455C157.332 44.8971 155.651 46.2928 153.635 47.6327C151.619 48.8609 149.49 49.9775 147.25 50.9824C145.122 51.9874 142.993 52.769 140.865 53.3273C138.849 53.8855 137.112 54.1647 135.656 54.1647C133.192 54.1647 131.175 53.7739 129.607 52.9923C128.039 52.2107 126.863 51.3732 126.079 50.48C125.295 49.5867 124.846 48.7493 124.734 47.9677C124.734 47.0744 125.014 46.5161 125.575 46.2928C127.367 45.8461 129.943 45.232 133.304 44.4504C136.776 43.5572 140.137 42.4964 143.385 41.2682C146.634 40.0399 149.266 38.6442 151.283 37.081C153.411 35.4061 153.971 33.4521 152.963 31.2189C152.179 29.6557 150.219 28.7066 147.082 28.3716C143.946 27.925 140.417 27.925 136.496 28.3716C132.576 28.7066 128.543 29.3207 124.398 30.214C120.366 31.1073 116.949 32.0005 114.149 32.8938C107.316 35.0153 99.8104 37.8068 91.6331 41.2682C83.5678 44.6179 75.5585 48.4701 67.6052 52.8248C59.652 57.1795 52.0347 61.8691 44.7536 66.8937C37.5844 71.9184 31.4234 77.1105 26.2706 82.4701C21.2298 87.8297 17.5332 93.2451 15.1808 98.7163C12.9405 104.076 12.7164 109.324 14.5087 114.46C15.5169 117.252 17.2531 119.373 19.7175 120.825C22.294 122.276 25.2624 123.225 28.623 123.672C32.0955 124.119 35.8481 124.119 39.8808 123.672C43.9134 123.225 47.8341 122.444 51.6427 121.327C55.5633 120.099 59.2599 118.647 62.7325 116.972C66.205 115.186 69.1735 113.288 71.6379 111.278C73.6542 107.928 75.7826 104.634 78.0229 101.396C80.3753 98.0464 82.7277 94.9758 85.08 92.1843C87.4324 89.3929 89.7848 86.8806 92.1372 84.6474C94.4896 82.3026 96.7299 80.4602 98.8583 79.1203C99.9784 78.3387 101.267 77.8921 102.723 77.7804C104.179 77.5571 105.467 77.6129 106.588 77.9479C107.708 78.1712 108.548 78.562 109.108 79.1203C109.78 79.6786 109.948 80.1811 109.612 80.6277C104.683 87.3272 100.09 93.7476 95.8338 99.8888C91.6891 105.918 87.7685 112.06 84.0719 118.312C80.4873 124.454 77.0708 130.818 73.8222 137.406C70.5737 144.105 67.3812 151.363 64.2447 159.179C63.9086 159.961 63.3486 160.184 62.5644 159.849C61.7803 159.514 60.9962 158.789 60.212 157.672C59.4279 156.667 58.7558 155.327 58.1957 153.652C57.6356 151.977 57.4116 150.135 57.5236 148.125C57.8597 140.309 59.932 132.716 63.7406 125.347C59.4839 127.357 54.7232 128.808 49.4583 129.702C44.1935 130.595 38.9846 130.762 33.8318 130.204C28.791 129.646 24.1983 128.25 20.0536 126.017C15.9089 123.784 12.8284 120.657 10.8121 116.638Z" fill="#0B101F"/>
<path d="M131.872 73.7607C133.44 73.7607 134.84 74.1515 136.072 74.9331C137.417 75.7147 138.201 76.7755 138.425 78.1154C141.337 78.7853 143.409 80.1811 144.642 82.3026C145.874 84.4241 146.378 86.8247 146.154 89.5045C148.954 89.8395 151.643 89.3929 154.219 88.1646C156.908 86.9364 158.98 85.429 160.436 83.6425C161.332 82.6376 162.116 81.9676 162.789 81.6326C163.573 81.2977 164.189 81.2418 164.637 81.4651C165.085 81.6885 165.309 82.1351 165.309 82.805C165.309 83.3633 165.085 84.0333 164.637 84.8149C162.845 87.8297 160.212 90.5653 156.74 93.0218C153.379 95.4783 148.898 97.0415 143.297 97.7114C141.841 99.9446 139.993 101.954 137.753 103.741C135.624 105.528 133.048 106.867 130.023 107.761C128.679 108.207 126.999 108.207 124.983 107.761C123.078 107.314 121.174 106.477 119.27 105.248C117.477 104.02 115.965 102.457 114.733 100.559C113.501 98.6605 113.053 96.539 113.389 94.1942C113.613 91.961 114.285 89.672 115.405 87.3272C116.413 84.8707 117.701 82.6376 119.27 80.6277C120.95 78.6179 122.854 76.9988 124.983 75.7706C127.111 74.4307 129.407 73.7607 131.872 73.7607ZM125.151 101.396C125.711 102.289 126.887 102.289 128.679 101.396C130.471 100.503 132.208 99.1072 133.888 97.209C132.656 96.3157 131.592 95.1433 130.695 93.6917C129.799 92.1285 129.183 90.342 128.847 88.3321C126.943 90.9003 125.599 93.4684 124.814 96.0366C124.03 98.493 124.142 100.28 125.151 101.396Z" fill="#0B101F"/>
<path d="M231.848 22.1746C231.96 23.6262 231.232 25.5243 229.663 27.8692C228.207 30.214 225.575 33.4521 221.766 37.5834C217.957 41.7148 212.749 47.0186 206.14 53.4947C199.643 59.9709 191.465 68.0662 181.608 77.7804C175.895 83.5867 171.078 89.5045 167.157 95.5341C167.941 95.6458 169.342 95.3108 171.358 94.5292C173.486 93.7476 175.671 92.7985 177.911 91.6819C180.263 90.4536 182.504 89.2254 184.632 87.9972C186.872 86.6573 188.497 85.5407 189.505 84.6474C190.625 83.6425 191.465 83.14 192.025 83.14C192.697 83.14 193.033 83.4192 193.033 83.9775C193.145 84.4241 193.033 85.094 192.697 85.9873C192.361 86.7689 191.801 87.5505 191.017 88.3321C184.632 94.1384 179.647 98.3814 176.063 101.061C172.59 103.741 170.182 105.248 168.838 105.583C167.605 105.807 166.485 105.639 165.477 105.081C164.469 104.411 163.573 103.629 162.789 102.736C158.98 109.101 156.124 114.628 154.219 119.317C152.315 123.895 150.971 126.575 150.187 127.357C149.626 127.803 148.73 127.748 147.498 127.189C146.266 126.743 145.034 126.017 143.802 125.012C142.457 124.007 141.281 122.89 140.273 121.662C139.153 120.322 138.481 119.094 138.257 117.977C138.257 117.531 139.153 115.744 140.945 112.618C142.737 109.38 145.202 105.36 148.338 100.559C151.475 95.6458 155.059 90.1187 159.092 83.9775C163.237 77.8363 167.549 71.6392 172.03 65.3864C176.511 59.0218 180.992 52.8248 185.472 46.7952C190.065 40.654 194.378 35.1828 198.41 30.3815C202.443 25.4685 206.028 21.5046 209.164 18.4899C212.413 15.3634 214.933 13.6327 216.725 13.2978C218.966 12.8511 220.982 12.907 222.774 13.4652C224.679 14.0235 226.247 14.8051 227.479 15.8101C228.823 16.815 229.831 17.9316 230.503 19.1598C231.288 20.3881 231.736 21.393 231.848 22.1746ZM223.782 22.5096C223.334 22.1746 222.27 22.7329 220.59 24.1844C218.91 25.5243 216.837 27.5342 214.373 30.214C211.908 32.7821 209.164 35.8527 206.14 39.4258C203.115 42.8872 199.979 46.6278 196.73 50.6475C193.594 54.5555 190.457 58.5752 187.321 62.7066C184.184 66.8379 181.272 70.7459 178.583 74.4307C183.624 69.5177 188.945 64.1581 194.546 58.3519C200.147 52.5457 205.243 47.1302 209.836 42.1056C214.429 36.9693 218.069 32.6146 220.758 29.0416C223.558 25.3569 224.567 23.1795 223.782 22.5096Z" fill="#0B101F"/>
<path d="M229.279 85.8198C231.407 84.2566 232.583 83.7541 232.807 84.3124C233.031 84.8707 232.639 85.9315 231.631 87.4947C230.623 89.1696 229.167 91.1236 227.262 93.3568C225.47 95.5899 223.454 97.7114 221.213 99.7213C218.973 101.731 216.621 103.518 214.156 105.081C211.692 106.644 209.396 107.593 207.267 107.928C205.811 108.151 203.907 107.817 201.554 106.923C199.202 105.918 196.906 104.523 194.665 102.736C192.537 100.95 190.745 98.8838 189.288 96.539C187.832 94.1942 187.328 91.7935 187.776 89.3371C188.112 87.3272 188.952 85.429 190.296 83.6425C191.641 81.7443 193.153 80.1252 194.833 78.7853C196.513 77.3338 198.194 76.2172 199.874 75.4356C201.666 74.5423 203.179 74.0957 204.411 74.0957C205.419 74.0957 206.539 74.3748 207.771 74.9331C209.115 75.4914 210.292 76.2172 211.3 77.1105C212.42 78.0037 213.26 79.0645 213.82 80.2927C214.492 81.4093 214.772 82.5817 214.66 83.81C214.436 85.0382 213.596 86.4898 212.14 88.1646C210.684 89.7279 209.059 91.2911 207.267 92.8543C205.251 94.6408 202.898 96.4832 200.21 98.3814C202.674 99.0513 206.595 98.2697 211.972 96.0366C217.461 93.8034 223.23 90.3978 229.279 85.8198ZM209.452 82.6376C209.003 82.3026 207.939 82.5817 206.259 83.475C204.691 84.2566 203.123 85.3174 201.554 86.6573C199.986 87.9972 198.642 89.5045 197.522 91.1794C196.513 92.7426 196.289 94.0825 196.849 95.1991C197.522 94.8641 198.586 94.0825 200.042 92.8543C201.61 91.626 203.122 90.2861 204.579 88.8346C206.147 87.383 207.435 86.099 208.443 84.9824C209.452 83.7541 209.788 82.9725 209.452 82.6376Z" fill="#0B101F"/>
<path d="M236.371 82.805C236.819 83.2517 237.491 83.475 238.388 83.475C239.284 83.3633 240.18 83.14 241.076 82.805C242.084 82.4701 242.98 82.0793 243.764 81.6326C244.661 81.186 245.277 80.7952 245.613 80.4602C245.837 80.0136 246.397 79.7903 247.293 79.7903C248.301 79.7903 249.309 80.0136 250.318 80.4602C251.326 80.7952 252.222 81.3535 253.006 82.1351C253.902 82.805 254.462 83.6425 254.686 84.6474C254.798 85.5407 254.35 86.8247 253.342 88.4996C252.446 90.1745 251.438 91.8494 250.318 93.5242C249.309 95.0875 248.525 96.4832 247.965 97.7114C247.405 98.9397 247.573 99.5538 248.469 99.5538C249.365 99.5538 250.654 98.9397 252.334 97.7114C254.126 96.3715 255.974 94.8641 257.879 93.1893C259.783 91.5144 261.575 89.8395 263.256 88.1646C264.936 86.4898 266.168 85.2615 266.952 84.4799C268.632 83.0284 270.033 82.4701 271.153 82.805C272.385 83.14 272.273 84.3124 270.817 86.3223C270.145 87.3272 269.081 88.7788 267.624 90.677C266.28 92.5751 264.712 94.585 262.92 96.7065C261.127 98.828 259.223 100.838 257.207 102.736C255.19 104.634 253.174 105.974 251.158 106.756C250.262 107.091 248.973 107.091 247.293 106.756C245.725 106.421 244.101 105.862 242.42 105.081C240.74 104.299 239.284 103.294 238.052 102.066C236.819 100.726 236.259 99.2188 236.371 97.5439C236.371 96.0924 236.707 94.585 237.379 93.0218C238.164 91.3469 239.004 89.5604 239.9 87.6622C237.884 88.2205 235.811 88.2763 233.683 87.8297C231.555 87.383 229.818 86.6014 228.474 85.4848C227.13 84.3683 226.346 83.0284 226.122 81.4651C225.898 79.7903 226.626 78.0037 228.306 76.1055C230.098 73.984 231.835 72.8116 233.515 72.5883C235.307 72.365 236.707 72.7558 237.715 73.7607C238.724 74.654 239.172 75.9939 239.06 77.7804C239.06 79.4553 238.164 81.1302 236.371 82.805Z" fill="#0B101F"/>
</svg>
