<svg width="222" height="151" viewBox="0 0 222 151" fill="none" xmlns="http://www.w3.org/2000/svg">
<path d="M49.0159 72.2756C52.6027 72.2756 55.8051 73.1716 58.6232 74.9637C61.6976 76.7558 63.4909 79.188 64.0033 82.2601C70.6644 83.7962 75.4039 86.9964 78.2221 91.8607C81.0402 96.7249 82.1931 102.229 81.6807 108.374C88.0856 109.142 94.2342 108.118 100.127 105.301C106.275 102.485 111.015 99.0291 114.345 94.9329C116.395 92.6287 118.188 91.0926 119.726 90.3246C121.519 89.5565 122.928 89.4285 123.953 89.9406C124.978 90.4526 125.49 91.4767 125.49 93.0127C125.49 94.2928 124.978 95.8289 123.953 97.621C119.854 104.533 113.833 110.806 105.891 116.438C98.2053 122.07 87.9575 125.655 75.1478 127.191C71.8172 132.311 67.59 136.919 62.4661 141.015C57.5984 145.112 51.706 148.184 44.7887 150.232C41.7144 151.256 37.8715 151.256 33.26 150.232C28.9047 149.208 24.5494 147.288 20.1941 144.472C16.095 141.655 12.6363 138.071 9.8182 133.719C7.00007 129.367 5.97529 124.503 6.74387 119.126C7.25626 114.006 8.79343 108.758 11.3554 103.381C13.6611 97.749 16.6074 92.6287 20.1941 88.0205C24.037 83.4122 28.3923 79.7 33.26 76.8838C38.1277 73.8117 43.3797 72.2756 49.0159 72.2756ZM33.6443 135.639C34.9252 137.687 37.6153 137.687 41.7144 135.639C45.8135 133.591 49.7845 130.391 53.6274 126.039C50.8093 123.99 48.3755 121.302 46.3259 117.974C44.2763 114.39 42.8673 110.294 42.0987 105.685C37.7434 111.574 34.6691 117.462 32.8757 123.35C31.0823 128.983 31.3385 133.079 33.6443 135.639Z" fill="white"/>
<path d="M145.089 72.2756C148.676 72.2756 151.878 73.1716 154.696 74.9637C157.77 76.7558 159.564 79.188 160.076 82.2601C166.737 83.7962 171.477 86.9964 174.295 91.8607C177.113 96.7249 178.266 102.229 177.754 108.374C184.158 109.142 190.307 108.118 196.2 105.301C202.348 102.485 207.088 99.0291 210.418 94.9329C212.468 92.6287 214.261 91.0926 215.798 90.3246C217.592 89.5565 219.001 89.4285 220.026 89.9406C221.05 90.4526 221.563 91.4767 221.563 93.0127C221.563 94.2928 221.05 95.8289 220.026 97.621C215.927 104.533 209.906 110.806 201.964 116.438C194.278 122.07 184.03 125.655 171.221 127.191C167.89 132.311 163.663 136.919 158.539 141.015C153.671 145.112 147.779 148.184 140.862 150.232C137.787 151.256 133.944 151.256 129.333 150.232C124.978 149.208 120.622 147.288 116.267 144.472C112.168 141.655 108.709 138.071 105.891 133.719C103.073 129.367 102.048 124.503 102.817 119.126C103.329 114.006 104.866 108.758 107.428 103.381C109.734 97.749 112.68 92.6287 116.267 88.0205C120.11 83.4122 124.465 79.7 129.333 76.8838C134.201 73.8117 139.453 72.2756 145.089 72.2756ZM129.717 135.639C130.998 137.687 133.688 137.687 137.787 135.639C141.886 133.591 145.857 130.391 149.7 126.039C146.882 123.99 144.448 121.302 142.399 117.974C140.349 114.39 138.94 110.294 138.172 105.685C133.816 111.574 130.742 117.462 128.949 123.35C127.155 128.983 127.411 133.079 129.717 135.639Z" fill="white"/>
<path d="M187.14 6.5149C197.047 5.78122 206.483 4.20325 215.267 1.82837C217.355 1.26375 219.407 0.654078 221.419 0C221.271 0.284943 221.121 0.569185 220.969 0.852718C219.747 3.13642 218.396 5.37417 216.924 7.56206C195.187 39.8722 146.953 61.3108 91.7516 59.3427C55.8021 58.0609 23.5068 47.0876 0 30.2603C19.7093 37.7306 42.2809 42.3639 66.3714 43.2228C111.21 44.8215 151.732 33.003 178.866 13.1787C178.827 13.1798 178.788 13.1808 178.75 13.1819L159.856 6.44615C169.236 7.15229 178.372 7.16424 187.14 6.5149Z" fill="#FFD600"/>
<path d="M159.856 6.44615L159.795 6.4242L159.778 6.44026L159.856 6.44615Z" fill="#FFD600"/>
</svg>
