<svg width="18" height="20" viewBox="0 0 18 20" fill="none" xmlns="http://www.w3.org/2000/svg">
<path fill-rule="evenodd" clip-rule="evenodd" d="M17.5244 11.5587V2.23718C15.4651 2.23718 13.7958 3.90653 13.7958 5.96577V11.5587H17.5244ZM5.82615 6.43417L5.40645 2.23719H4.4743V6.43186C4.4743 8.23369 5.93498 9.69437 7.73682 9.69437C9.53866 9.69437 10.9993 8.23369 10.9993 6.43186V2.23719H10.0672L9.64749 6.43417C9.62116 6.69744 9.39962 6.89793 9.13504 6.89793C8.87046 6.89793 8.64892 6.69744 8.62259 6.43417L8.20289 2.23719H7.27075L6.85105 6.43417C6.82472 6.69744 6.60318 6.89793 6.3386 6.89793C6.07401 6.89793 5.85248 6.69744 5.82615 6.43417ZM8.7207 12.4894C8.69169 11.9672 8.25981 11.5586 7.73685 11.5586C7.21388 11.5586 6.782 11.9672 6.75299 12.4894L6.41618 18.5519C6.41483 18.5763 6.41415 18.6008 6.41415 18.6253C6.41415 19.3558 7.00634 19.948 7.73685 19.948C7.76132 19.948 7.78578 19.9473 7.81022 19.9459C8.5396 19.9054 9.09803 19.2813 9.05751 18.5519L8.7207 12.4894ZM16.1262 13.4229C16.6514 13.4229 17.0873 13.8288 17.1247 14.3527L17.4248 18.5533C17.476 19.2705 16.9361 19.8934 16.2189 19.9447C16.188 19.9469 16.1571 19.948 16.1262 19.948C15.4071 19.948 14.8243 19.3651 14.8243 18.6461C14.8243 18.6151 14.8254 18.5842 14.8276 18.5533L15.1276 14.3527C15.165 13.8288 15.6009 13.4229 16.1262 13.4229Z" fill="#EE6F34"/>
<path opacity="0.2" fill-rule="evenodd" clip-rule="evenodd" d="M6.3178 14.5415C9.80702 14.5415 11.5826 8.36136 8.42373 5.8166C5.26483 3.27184 10.509 0 7.01978 0C3.53055 0 0 4.38385 0 7.99782C0 11.6118 2.82857 14.5415 6.3178 14.5415Z" fill="#EE6F34"/>
</svg>
