<svg width="16" height="18" viewBox="0 0 16 18" fill="none" xmlns="http://www.w3.org/2000/svg">
<path fill-rule="evenodd" clip-rule="evenodd" d="M5.20854 5.75207L4.83333 2H4V5.75C4 7.36083 5.30584 8.66667 6.91667 8.66667C8.5275 8.66667 9.83333 7.36083 9.83333 5.75V2H9L8.62479 5.75207C8.60126 5.98743 8.4032 6.16667 8.16667 6.16667C7.93013 6.16667 7.73208 5.98743 7.70854 5.75207L7.33333 2H6.5L6.12479 5.75207C6.10126 5.98743 5.9032 6.16667 5.66667 6.16667C5.43013 6.16667 5.23208 5.98743 5.20854 5.75207ZM7.79623 11.1654C7.77029 10.6986 7.3842 10.3333 6.91667 10.3333C6.44914 10.3333 6.06304 10.6986 6.03711 11.1654L5.736 16.5853C5.73479 16.6071 5.73418 16.629 5.73418 16.6509C5.73418 17.3039 6.2636 17.8333 6.91667 17.8333C6.93854 17.8333 6.96042 17.8327 6.98226 17.8315C7.63432 17.7953 8.13355 17.2373 8.09733 16.5853L7.79623 11.1654ZM14.4167 12C14.8862 12 15.2759 12.3629 15.3094 12.8312L15.5776 16.5865C15.6234 17.2277 15.1408 17.7846 14.4996 17.8304C14.472 17.8323 14.4443 17.8333 14.4167 17.8333C13.7739 17.8333 13.2528 17.3122 13.2528 16.6694C13.2528 16.6418 13.2538 16.6141 13.2557 16.5865L13.524 12.8312C13.5574 12.3629 13.9471 12 14.4167 12ZM15.6667 10.3333V2C13.8257 2 12.3333 3.49238 12.3333 5.33333V10.3333H15.6667Z" fill="#EE6F34"/>
<path opacity="0.2" fill-rule="evenodd" clip-rule="evenodd" d="M5.64807 13C8.76741 13 10.3548 7.475 7.53076 5.2C4.70672 2.925 9.39497 0 6.27563 0C3.15629 0 0 3.91913 0 7.15C0 10.3809 2.52873 13 5.64807 13Z" fill="#EE6F34"/>
</svg>
