<svg width="12" height="16" viewBox="0 0 12 16" fill="none" xmlns="http://www.w3.org/2000/svg">
<path fill-rule="evenodd" clip-rule="evenodd" d="M1.20854 3.75207L0.833333 0H0V3.75C0 5.36083 1.30584 6.66667 2.91667 6.66667C4.5275 6.66667 5.83333 5.36083 5.83333 3.75V0H5L4.62479 3.75207C4.60126 3.98743 4.4032 4.16667 4.16667 4.16667C3.93013 4.16667 3.73208 3.98743 3.70854 3.75207L3.33333 0H2.5L2.12479 3.75207C2.10126 3.98743 1.9032 4.16667 1.66667 4.16667C1.43013 4.16667 1.23208 3.98743 1.20854 3.75207ZM3.79623 9.16538C3.77029 8.69857 3.3842 8.33333 2.91667 8.33333C2.44914 8.33333 2.06304 8.69857 2.03711 9.16538L1.736 14.5853C1.73479 14.6071 1.73418 14.629 1.73418 14.6509C1.73418 15.3039 2.2636 15.8333 2.91667 15.8333C2.93854 15.8333 2.96042 15.8327 2.98226 15.8315C3.63432 15.7953 4.13355 15.2373 4.09733 14.5853L3.79623 9.16538ZM10.4167 10C10.8862 10 11.2759 10.3629 11.3094 10.8312L11.5776 14.5865C11.6234 15.2277 11.1408 15.7846 10.4996 15.8304C10.472 15.8323 10.4443 15.8333 10.4167 15.8333C9.77386 15.8333 9.25277 15.3122 9.25277 14.6694C9.25277 14.6418 9.25375 14.6141 9.25573 14.5865L9.52396 10.8312C9.55741 10.3629 9.94713 10 10.4167 10ZM11.6667 8.33333V0C9.82572 0 8.33333 1.49238 8.33333 3.33333V8.33333H11.6667Z" fill="#0B101F"/>
</svg>
