<svg width="15" height="17" viewBox="0 0 15 17" fill="none" xmlns="http://www.w3.org/2000/svg">
<path fill-rule="evenodd" clip-rule="evenodd" d="M0 7.10645C0 2.84258 2.84258 0 7.10645 0C11.3703 0 14.2129 3.55323 14.2129 7.10645C14.2129 9.31662 12.1508 12.3516 8.02649 16.2115C7.50006 16.7042 6.68812 16.7246 6.13756 16.2591C2.04585 12.799 0 9.74816 0 7.10645ZM7.10644 8.52775C8.4147 8.52775 9.47526 7.4672 9.47526 6.15894C9.47526 4.85067 8.4147 3.79012 7.10644 3.79012C5.79818 3.79012 4.73762 4.85067 4.73762 6.15894C4.73762 7.4672 5.79818 8.52775 7.10644 8.52775Z" fill="#EE6F34"/>
</svg>
