<svg width="17" height="17" viewBox="0 0 17 17" fill="none" xmlns="http://www.w3.org/2000/svg">
<path d="M8.12 9.148H6.992L6.968 8.164H7.76L8.12 9.148Z" fill="#868686"/>
<path d="M9.908 11.308H9.86L9.368 9.916H9.872L9.908 11.308Z" fill="#868686"/>
<path d="M7.472 7.396H6.968L6.92 5.908H6.968L7.472 7.396Z" fill="#868686"/>
<path d="M9.884 9.148H9.08L8.72 8.164H9.86L9.884 9.148Z" fill="#868686"/>
<path fill-rule="evenodd" clip-rule="evenodd" d="M16.6667 8.33333C16.6667 12.9357 12.9357 16.6667 8.33333 16.6667C3.73096 16.6667 0 12.9357 0 8.33333C0 3.73096 3.73096 0 8.33333 0C12.9357 0 16.6667 3.73096 16.6667 8.33333ZM6.056 9.916V13H6.992V9.916H8.408L9.548 13H10.808V9.916H11.744V9.148H10.808V8.164H11.744V7.396H10.808V4.432H9.86V7.396H8.444L7.304 4.432H6.056V7.396H5.12V8.164H6.056V9.148H5.12V9.916H6.056Z" fill="#868686"/>
</svg>
