<svg width="20" height="24" viewBox="0 0 20 24" fill="none" xmlns="http://www.w3.org/2000/svg">
<path opacity="0.2" fill-rule="evenodd" clip-rule="evenodd" d="M11.2961 24C17.5348 24 20.7096 13.8 15.0615 9.6C9.41345 5.4 18.79 0 12.5513 0C6.31258 0 0 7.23532 0 13.2C0 19.1647 5.05745 24 11.2961 24Z" fill="#EE6F34"/>
<path fill-rule="evenodd" clip-rule="evenodd" d="M12.5 21C16.6421 21 20 17.6421 20 13.5C20 9.35786 16.6421 6 12.5 6C8.35786 6 5 9.35786 5 13.5C5 17.6421 8.35786 21 12.5 21ZM9.36381 14.9953V18.3529H10.9607V14.9953H12.2267L13.3776 18.3529H15.6506V14.9953H16.4706V13.9894H15.6506V13.0106H16.4706V12.0047H15.6506V8.64706H14.0537V12.0047H12.7446L11.6224 8.64706H9.36381V12.0047H8.52941V13.0106H9.36381V13.9894H8.52941V14.9953H9.36381ZM11.9102 13.9894H10.9607L10.9319 13.0106H11.5937L11.9102 13.9894ZM14.1688 16.2323H14.0969L13.7228 14.9953H14.1113L14.1688 16.2323ZM11.3059 12.0047H10.9031L10.8312 10.6997H10.8887L11.3059 12.0047ZM14.0825 13.9894H13.4207L13.0898 13.0106H14.0537L14.0825 13.9894Z" fill="#EE6F34"/>
</svg>
