<svg width="20" height="18" viewBox="0 0 20 18" fill="none" xmlns="http://www.w3.org/2000/svg">
<path fill-rule="evenodd" clip-rule="evenodd" d="M6 4.33333C6 3.86662 6 3.63327 6.09083 3.45501C6.17072 3.29821 6.29821 3.17072 6.45501 3.09083C6.63327 3 6.86662 3 7.33333 3H18C18.4667 3 18.7001 3 18.8783 3.09083C19.0351 3.17072 19.1626 3.29821 19.2425 3.45501C19.3333 3.63327 19.3333 3.86662 19.3333 4.33333V16.6667C19.3333 17.1334 19.3333 17.3667 19.2425 17.545C19.2026 17.6234 19.1507 17.6945 19.0893 17.7559L17.6667 16.3333L16.4167 17.5833L15.1667 16.3333L13.9167 17.5833L12.6667 16.3333L11.4167 17.5833L10.1667 16.3333L8.91667 17.5833L7.66667 16.3333L6.24408 17.7559C6.18262 17.6945 6.13078 17.6234 6.09083 17.545C6 17.3667 6 17.1334 6 16.6667V4.33333ZM7.71208 4.89417C7.66667 4.9833 7.66667 5.09998 7.66667 5.33333V5.66667C7.66667 5.90002 7.66667 6.0167 7.71208 6.10583C7.75203 6.18423 7.81577 6.24797 7.89417 6.28792C7.9833 6.33333 8.09998 6.33333 8.33333 6.33333H17C17.2334 6.33333 17.35 6.33333 17.4392 6.28792C17.5176 6.24797 17.5813 6.18423 17.6213 6.10583C17.6667 6.0167 17.6667 5.90002 17.6667 5.66667V5.33333C17.6667 5.09998 17.6667 4.9833 17.6213 4.89417C17.5813 4.81577 17.5176 4.75203 17.4392 4.71208C17.35 4.66667 17.2334 4.66667 17 4.66667H8.33333C8.09998 4.66667 7.9833 4.66667 7.89417 4.71208C7.81577 4.75203 7.75203 4.81577 7.71208 4.89417Z" fill="#EE6F34"/>
<path opacity="0.2" fill-rule="evenodd" clip-rule="evenodd" d="M5.64807 13C8.76741 13 10.3548 7.475 7.53076 5.2C4.70672 2.925 9.39497 0 6.27563 0C3.15629 0 0 3.91913 0 7.15C0 10.3809 2.52873 13 5.64807 13Z" fill="#EE6F34"/>
</svg>
