<svg width="14" height="15" viewBox="0 0 14 15" fill="none" xmlns="http://www.w3.org/2000/svg">
<path fill-rule="evenodd" clip-rule="evenodd" d="M0 1.33333C0 0.866623 0 0.633268 0.0908279 0.455008C0.170722 0.298206 0.298206 0.170722 0.455008 0.0908279C0.633268 0 0.866623 0 1.33333 0H12C12.4667 0 12.7001 0 12.8783 0.0908279C13.0351 0.170722 13.1626 0.298206 13.2425 0.455008C13.3333 0.633268 13.3333 0.866623 13.3333 1.33333V13.6667C13.3333 14.1334 13.3333 14.3667 13.2425 14.545C13.2026 14.6234 13.1507 14.6945 13.0893 14.7559L11.6667 13.3333L10.4167 14.5833L9.16667 13.3333L7.91667 14.5833L6.66667 13.3333L5.41667 14.5833L4.16667 13.3333L2.91667 14.5833L1.66667 13.3333L0.244077 14.7559C0.18262 14.6945 0.130775 14.6234 0.0908279 14.545C0 14.3667 0 14.1334 0 13.6667V1.33333ZM1.71208 1.89417C1.66667 1.9833 1.66667 2.09998 1.66667 2.33333V2.66667C1.66667 2.90002 1.66667 3.0167 1.71208 3.10583C1.75203 3.18423 1.81577 3.24797 1.89417 3.28792C1.9833 3.33333 2.09998 3.33333 2.33333 3.33333H11C11.2334 3.33333 11.35 3.33333 11.4392 3.28792C11.5176 3.24797 11.5813 3.18423 11.6213 3.10583C11.6667 3.0167 11.6667 2.90002 11.6667 2.66667V2.33333C11.6667 2.09998 11.6667 1.9833 11.6213 1.89417C11.5813 1.81577 11.5176 1.75203 11.4392 1.71208C11.35 1.66667 11.2334 1.66667 11 1.66667H2.33333C2.09998 1.66667 1.9833 1.66667 1.89417 1.71208C1.81577 1.75203 1.75203 1.81577 1.71208 1.89417Z" fill="#EE6F34"/>
</svg>
