<svg width="27" height="26" viewBox="0 0 27 26" fill="none" xmlns="http://www.w3.org/2000/svg">
<path d="M24.7328 18.0568C24.9867 18.0568 25.1862 18.2563 25.1862 18.5102V19.4171C25.1862 20.9225 23.971 22.1378 22.4656 22.1378C22.4656 20.6414 21.2413 19.4171 19.7449 19.4171C18.2485 19.4171 17.0242 20.6414 17.0242 22.1378H15.2105C15.2105 20.6414 13.9862 19.4171 12.4898 19.4171C10.9934 19.4171 9.76913 20.6414 9.76913 22.1378C8.26369 22.1378 7.04846 20.9225 7.04846 19.4171V17.6033C7.04846 17.1045 7.45656 16.6964 7.95535 16.6964H16.5708C17.8223 16.6964 18.838 15.6807 18.838 14.4292V9.44134C18.838 8.94255 19.2461 8.53445 19.7449 8.53445H20.5067C21.1596 8.53445 21.7582 8.88814 22.0847 9.45041L22.6651 10.4661C22.7467 10.6112 22.6379 10.8017 22.4656 10.8017C21.2141 10.8017 20.1983 11.8174 20.1983 13.0689V15.7896C20.1983 17.0411 21.2141 18.0568 22.4656 18.0568H24.7328Z" fill="#EE6F34"/>
<path d="M12.4898 23.9515C13.4915 23.9515 14.3035 23.1395 14.3035 22.1378C14.3035 21.136 13.4915 20.324 12.4898 20.324C11.488 20.324 10.676 21.136 10.676 22.1378C10.676 23.1395 11.488 23.9515 12.4898 23.9515Z" fill="#EE6F34"/>
<path d="M19.7449 23.9515C20.7466 23.9515 21.5587 23.1395 21.5587 22.1378C21.5587 21.136 20.7466 20.324 19.7449 20.324C18.7432 20.324 17.9311 21.136 17.9311 22.1378C17.9311 23.1395 18.7432 23.9515 19.7449 23.9515Z" fill="#EE6F34"/>
<path d="M25.1862 15.3633V16.6964H22.4655C21.9668 16.6964 21.5587 16.2883 21.5587 15.7895V13.0689C21.5587 12.5701 21.9668 12.162 22.4655 12.162H23.6354L24.9504 14.4655C25.1046 14.7375 25.1862 15.0459 25.1862 15.3633Z" fill="#EE6F34"/>
<path d="M17.0968 5.81378H10.3949C8.77155 5.81378 7.41122 6.9746 7.11194 8.51631H11.075C11.4197 8.51631 11.6917 8.79744 11.6917 9.14206C11.6917 9.48668 11.4197 9.75874 11.075 9.75874H7.04846V11.0103H9.40637C9.75099 11.0103 10.0321 11.2914 10.0321 11.636C10.0321 11.9806 9.75099 12.2527 9.40637 12.2527H7.04846V13.5042H7.74677C8.09138 13.5042 8.37252 13.7853 8.37252 14.1299C8.37252 14.4746 8.09138 14.7466 7.74677 14.7466H7.04846V14.9552C7.04846 15.454 7.45656 15.8621 7.95535 15.8621H16.2534C17.1784 15.8621 17.9311 15.1094 17.9311 14.1844V6.64812C17.9311 6.18561 17.5593 5.81378 17.0968 5.81378Z" fill="#EE6F34"/>
<path d="M7.11193 8.5163H6.9759H6.08715C5.74253 8.5163 5.4614 8.79743 5.4614 9.14205C5.4614 9.48667 5.74253 9.75873 6.08715 9.75873H6.91242H7.04845V9.16019C7.04845 8.94253 7.07566 8.72488 7.11193 8.5163Z" fill="#EE6F34"/>
<path d="M6.91242 11.0103H6.08715C5.74253 11.0103 5.4614 11.2914 5.4614 11.636C5.4614 11.9806 5.74253 12.2527 6.08715 12.2527H6.91242H7.04845V11.0103H6.91242Z" fill="#EE6F34"/>
<path d="M6.91242 13.5042H6.08715C5.74253 13.5042 5.4614 13.7853 5.4614 14.1299C5.4614 14.4746 5.74253 14.7466 6.08715 14.7466H6.91242H7.04845V13.5042H6.91242Z" fill="#EE6F34"/>
<path opacity="0.2" fill-rule="evenodd" clip-rule="evenodd" d="M8.24401 18.975C12.7971 18.975 15.114 10.9106 10.992 7.59C6.87001 4.26938 13.7131 0 9.16001 0C4.60697 0 0 5.72043 0 10.4363C0 15.1521 3.69097 18.975 8.24401 18.975Z" fill="#EE6F34"/>
</svg>
