<svg width="51" height="48" viewBox="0 0 51 48" fill="none" xmlns="http://www.w3.org/2000/svg">
<path d="M46.7175 33.3167C47.1971 33.3167 47.574 33.6936 47.574 34.1732V35.8862C47.574 38.7298 45.2785 41.0253 42.4349 41.0253C42.4349 38.1988 40.1224 35.8862 37.2959 35.8862C34.4694 35.8862 32.1569 38.1988 32.1569 41.0253H28.7308C28.7308 38.1988 26.4183 35.8862 23.5918 35.8862C20.7653 35.8862 18.4528 38.1988 18.4528 41.0253C15.6092 41.0253 13.3137 38.7298 13.3137 35.8862V32.4602C13.3137 31.518 14.0846 30.7472 15.0267 30.7472H31.3004C33.6643 30.7472 35.5829 28.8286 35.5829 26.4647V17.0431C35.5829 16.1009 36.3537 15.3301 37.2959 15.3301H38.7348C39.9682 15.3301 41.0988 15.9982 41.7155 17.0602L42.8118 18.9788C42.966 19.2529 42.7604 19.6126 42.4349 19.6126C40.071 19.6126 38.1524 21.5312 38.1524 23.8951V29.0342C38.1524 31.3981 40.071 33.3167 42.4349 33.3167H46.7175Z" fill="white"/>
<path d="M23.5918 44.4512C25.4839 44.4512 27.0178 42.9173 27.0178 41.0251C27.0178 39.133 25.4839 37.5991 23.5918 37.5991C21.6997 37.5991 20.1658 39.133 20.1658 41.0251C20.1658 42.9173 21.6997 44.4512 23.5918 44.4512Z" fill="white"/>
<path d="M37.2959 44.4512C39.188 44.4512 40.7219 42.9173 40.7219 41.0251C40.7219 39.133 39.188 37.5991 37.2959 37.5991C35.4038 37.5991 33.8699 39.133 33.8699 41.0251C33.8699 42.9173 35.4038 44.4512 37.2959 44.4512Z" fill="white"/>
<path d="M47.574 28.2291V30.7472H42.4349C41.4928 30.7472 40.7219 29.9763 40.7219 29.0342V23.8951C40.7219 22.953 41.4928 22.1821 42.4349 22.1821H44.6447L47.1286 26.5332C47.4198 27.0471 47.574 27.6295 47.574 28.2291Z" fill="white"/>
<path d="M32.2939 10.1909H19.6347C16.5684 10.1909 13.9989 12.3836 13.4336 15.2957H20.9195C21.5704 15.2957 22.0843 15.8267 22.0843 16.4777C22.0843 17.1286 21.5704 17.6425 20.9195 17.6425H13.3137V20.0065H17.7676C18.4185 20.0065 18.9495 20.5375 18.9495 21.1885C18.9495 21.8394 18.4185 22.3533 17.7676 22.3533H13.3137V24.7173H14.6327C15.2837 24.7173 15.8147 25.2483 15.8147 25.8992C15.8147 26.5502 15.2837 27.0641 14.6327 27.0641H13.3137V27.4581C13.3137 28.4002 14.0846 29.1711 15.0267 29.1711H30.7008C32.4481 29.1711 33.8699 27.7493 33.8699 26.002V11.7669C33.8699 10.8933 33.1675 10.1909 32.2939 10.1909Z" fill="white"/>
<path d="M13.4336 15.2959H13.1766H11.4979C10.847 15.2959 10.3159 15.8269 10.3159 16.4779C10.3159 17.1288 10.847 17.6427 11.4979 17.6427H13.0567H13.3137V16.5121C13.3137 16.101 13.3651 15.6899 13.4336 15.2959Z" fill="white"/>
<path d="M13.0567 20.0063H11.4979C10.847 20.0063 10.3159 20.5374 10.3159 21.1883C10.3159 21.8393 10.847 22.3532 11.4979 22.3532H13.0567H13.3137V20.0063H13.0567Z" fill="white"/>
<path d="M13.0567 24.7173H11.4979C10.847 24.7173 10.3159 25.2483 10.3159 25.8993C10.3159 26.5502 10.847 27.0641 11.4979 27.0641H13.0567H13.3137V24.7173H13.0567Z" fill="white"/>
<path opacity="0.2" fill-rule="evenodd" clip-rule="evenodd" d="M15.572 35.8417C24.1722 35.8417 28.5487 20.609 20.7627 14.3367C12.9767 8.06438 25.9025 0 17.3023 0C8.70206 0 0 10.8053 0 19.7129C0 28.6206 6.97184 35.8417 15.572 35.8417Z" fill="white"/>
</svg>
