<svg width="17" height="12" viewBox="0 0 17 12" fill="none" xmlns="http://www.w3.org/2000/svg">
<path fill-rule="evenodd" clip-rule="evenodd" d="M0 1.66667C0 0.746194 0.746192 0 1.66667 0H15C15.9205 0 16.6667 0.746192 16.6667 1.66667V2.5H0V1.66667ZM0 5H16.6667V10C16.6667 10.9205 15.9205 11.6667 15 11.6667H1.66667C0.746192 11.6667 0 10.9205 0 10V5ZM12.5 7.5C12.0398 7.5 11.6667 7.8731 11.6667 8.33333C11.6667 8.79357 12.0398 9.16667 12.5 9.16667H14.1667C14.6269 9.16667 15 8.79357 15 8.33333C15 7.8731 14.6269 7.5 14.1667 7.5H12.5Z" fill="#0B101F"/>
</svg>
