<svg width="125" height="123" viewBox="0 0 125 123" fill="none" xmlns="http://www.w3.org/2000/svg">
<path opacity="0.1" fill-rule="evenodd" clip-rule="evenodd" d="M60 120C99 107.5 71 93.1371 71 60C71 26.8629 93.1371 0 60 0C26.8629 0 0 26.8629 0 60C0 93.1371 21 132.5 60 120Z" fill="#EE6F34"/>
<path fill-rule="evenodd" clip-rule="evenodd" d="M114.2 36H27.8C21.68 36 17 40.68 17 46.8V97.2C17 103.32 21.68 108 27.8 108H114.2C120.32 108 125 103.32 125 97.2V46.8C125 40.68 120.32 36 114.2 36Z" fill="#EE6F34"/>
<path opacity="0.5" fill-rule="evenodd" clip-rule="evenodd" d="M102 94C106.971 94 111 89.9706 111 85C111 80.0294 106.971 76 102 76C97.0294 76 93 80.0294 93 85C93 89.9706 97.0294 94 102 94Z" fill="white"/>
<path fill-rule="evenodd" clip-rule="evenodd" d="M94 94C98.9706 94 103 89.9706 103 85C103 80.0294 98.9706 76 94 76C89.0294 76 85 80.0294 85 85C85 89.9706 89.0294 94 94 94Z" fill="white"/>
<path fill-rule="evenodd" clip-rule="evenodd" d="M51.2 68.4004H58.4C59.48 68.4004 60.2 69.1204 60.2 70.2004C60.2 71.2804 59.48 72.0004 58.4 72.0004H51.2C50.12 72.0004 49.4 71.2804 49.4 70.2004C49.4 69.1204 50.12 68.4004 51.2 68.4004Z" fill="white"/>
<path fill-rule="evenodd" clip-rule="evenodd" d="M33.2 68.4004H40.4C41.48 68.4004 42.2 69.1204 42.2 70.2004C42.2 71.2804 41.48 72.0004 40.4 72.0004H33.2C32.12 72.0004 31.4 71.2804 31.4 70.2004C31.4 69.1204 32.12 68.4004 33.2 68.4004Z" fill="white"/>
<path fill-rule="evenodd" clip-rule="evenodd" d="M33.2 79.2002H51.2C52.28 79.2002 53 79.9202 53 81.0002C53 82.0802 52.28 82.8002 51.2 82.8002H33.2C32.12 82.8002 31.4 82.0802 31.4 81.0002C31.4 79.9202 32.12 79.2002 33.2 79.2002Z" fill="white"/>
<path fill-rule="evenodd" clip-rule="evenodd" d="M72.8 93.6H33.2C32.12 93.6 31.4 92.88 31.4 91.8C31.4 90.72 32.12 90 33.2 90H72.8C73.88 90 74.6 90.72 74.6 91.8C74.6 92.88 73.88 93.6 72.8 93.6Z" fill="white"/>
<path fill-rule="evenodd" clip-rule="evenodd" d="M76.4 72.0004H69.2C68.12 72.0004 67.4 71.2804 67.4 70.2004C67.4 69.1204 68.12 68.4004 69.2 68.4004H76.4C77.48 68.4004 78.2 69.1204 78.2 70.2004C78.2 71.2804 77.48 72.0004 76.4 72.0004Z" fill="white"/>
</svg>
