<svg width="16" height="15" viewBox="0 0 16 15" fill="none" xmlns="http://www.w3.org/2000/svg">
<path fill-rule="evenodd" clip-rule="evenodd" d="M7.99994 12.8794L4.09222 14.8921C3.62452 15.133 3.04604 14.9569 2.80016 14.4987C2.70225 14.3162 2.66846 14.1072 2.70403 13.904L3.45034 9.64107L0.288927 6.62202C-0.0894508 6.26068 -0.0971931 5.66725 0.271634 5.29656C0.418503 5.14894 0.610945 5.05288 0.819169 5.02324L5.18813 4.40128L7.14199 0.522705C7.37584 0.0584924 7.94953 -0.132102 8.42336 0.0970007C8.61204 0.18823 8.76477 0.337853 8.85789 0.522705L10.8117 4.40128L15.1807 5.02324C15.7036 5.09768 16.0659 5.57332 15.9899 6.0856C15.9597 6.2896 15.8616 6.47814 15.7109 6.62202L12.5495 9.64107L13.2958 13.904C13.3852 14.4143 13.0354 14.8988 12.5146 14.9863C12.3072 15.0212 12.0939 14.9881 11.9077 14.8921L7.99994 12.8794Z" fill="#EE6F34"/>
</svg>
