<svg width="16" height="16" viewBox="0 0 16 16" fill="none" xmlns="http://www.w3.org/2000/svg">
<path fill-rule="evenodd" clip-rule="evenodd" d="M3.62683 9.69388C3.6272 9.73405 3.62753 9.76973 3.62753 9.8006C3.62753 9.95029 3.62676 10.1578 3.62596 10.3719C3.62512 10.5999 3.62424 10.8354 3.62424 11.0163H3.74443C3.97199 11.0163 4.17547 10.8667 4.25435 10.6414L4.25437 10.6414C4.92315 8.73104 5.86818 7.57079 7.08945 7.16068C7.94134 6.87461 8.87898 6.78623 10.1953 6.74802V9.70281C10.1953 9.84739 10.247 9.98664 10.3401 10.0927C10.5441 10.3252 10.888 10.3392 11.1083 10.1238L15.8257 5.51233C15.8373 5.50103 15.8484 5.4892 15.859 5.47688C16.0607 5.24216 16.044 4.87926 15.8216 4.66632L11.1042 0.148836C11.0042 0.0530563 10.874 0 10.7389 0C10.4387 0 10.1953 0.256913 10.1953 0.573831V3.54677C8.1221 3.64403 6.38851 3.85731 5.23015 5.08696C3.6001 6.81741 3.62014 8.97473 3.62683 9.69388ZM7.17599 1.46295C7.17599 1.04039 6.85147 0.697843 6.45115 0.697843H2.89939C1.2981 0.697843 0 2.06804 0 3.75827V12.9396C0 14.6298 1.2981 16 2.89939 16H11.5976C13.1989 16 14.497 14.6298 14.497 12.9396V11.4094C14.497 10.9868 14.1724 10.6442 13.7721 10.6442C13.3718 10.6442 13.0473 10.9868 13.0473 11.4094V12.9396C13.0473 13.7847 12.3982 14.4698 11.5976 14.4698H2.89939C2.09875 14.4698 1.4497 13.7847 1.4497 12.9396V3.75827C1.4497 2.91316 2.09875 2.22806 2.89939 2.22806H6.45115C6.85147 2.22806 7.17599 1.88551 7.17599 1.46295Z" fill="#0B101F"/>
</svg>
