<svg width="20" height="18" viewBox="0 0 20 18" fill="none" xmlns="http://www.w3.org/2000/svg">
<path fill-rule="evenodd" clip-rule="evenodd" d="M10.9993 14.3703C7.39566 14.3703 4.4743 11.4489 4.4743 7.84522C4.4743 4.24155 7.39566 1.32019 10.9993 1.32019C14.603 1.32019 17.5244 4.24155 17.5244 7.84522C17.5244 9.54883 16.8715 11.1 15.8023 12.262L19.1157 15.5754C19.4797 15.9394 19.4797 16.5297 19.1157 16.8937C18.7516 17.2577 18.1614 17.2577 17.7974 16.8937L14.3495 13.4457C13.3702 14.0328 12.2242 14.3703 10.9993 14.3703ZM10.9993 12.5059C13.5734 12.5059 15.6601 10.4193 15.6601 7.84521C15.6601 5.27116 13.5734 3.18447 10.9993 3.18447C8.42526 3.18447 6.33858 5.27116 6.33858 7.84521C6.33858 10.4193 8.42526 12.5059 10.9993 12.5059Z" fill="#EE6F34"/>
<path opacity="0.2" fill-rule="evenodd" clip-rule="evenodd" d="M6.3178 14.7431C9.80702 14.7431 11.5826 8.56296 8.42373 6.0182C5.26483 3.47344 10.509 0.201599 7.01978 0.201599C3.53055 0.201599 0 4.58545 0 8.19942C0 11.8134 2.82857 14.7431 6.3178 14.7431Z" fill="#EE6F34"/>
</svg>
