<svg width="14" height="15" viewBox="0 0 14 15" fill="none" xmlns="http://www.w3.org/2000/svg">
<path fill-rule="evenodd" clip-rule="evenodd" d="M5.83333 11.6667C2.61167 11.6667 0 9.05499 0 5.83333C0 2.61167 2.61167 0 5.83333 0C9.05499 0 11.6667 2.61167 11.6667 5.83333C11.6667 7.35636 11.083 8.74305 10.1271 9.78194L13.0893 12.7441C13.4147 13.0695 13.4147 13.5972 13.0893 13.9226C12.7638 14.248 12.2362 14.248 11.9107 13.9226L8.82831 10.8402C7.95285 11.365 6.92832 11.6667 5.83333 11.6667ZM5.83333 10C8.13452 10 10 8.13452 10 5.83333C10 3.53215 8.13452 1.66667 5.83333 1.66667C3.53215 1.66667 1.66667 3.53215 1.66667 5.83333C1.66667 8.13452 3.53215 10 5.83333 10Z" fill="#0B101F"/>
</svg>
