<svg width="18" height="16" viewBox="0 0 18 16" fill="none" xmlns="http://www.w3.org/2000/svg">
<path fill-rule="evenodd" clip-rule="evenodd" d="M9.83333 12.6667C6.61167 12.6667 4 10.055 4 6.83333C4 3.61167 6.61167 1 9.83333 1C13.055 1 15.6667 3.61167 15.6667 6.83333C15.6667 8.35636 15.083 9.74305 14.1271 10.7819L17.0893 13.7441C17.4147 14.0695 17.4147 14.5972 17.0893 14.9226C16.7638 15.248 16.2362 15.248 15.9107 14.9226L12.8283 11.8402C11.9528 12.365 10.9283 12.6667 9.83333 12.6667ZM9.83333 11C12.1345 11 14 9.13452 14 6.83333C14 4.53215 12.1345 2.66667 9.83333 2.66667C7.53215 2.66667 5.66667 4.53215 5.66667 6.83333C5.66667 9.13452 7.53215 11 9.83333 11Z" fill="#EE6F34"/>
<path opacity="0.2" fill-rule="evenodd" clip-rule="evenodd" d="M5.64807 13C8.76741 13 10.3548 7.475 7.53076 5.2C4.70672 2.925 9.39497 0 6.27563 0C3.15629 0 0 3.91913 0 7.15C0 10.3809 2.52873 13 5.64807 13Z" fill="#EE6F34"/>
</svg>
