<svg width="20" height="24" viewBox="0 0 20 24" fill="none" xmlns="http://www.w3.org/2000/svg">
<path opacity="0.2" fill-rule="evenodd" clip-rule="evenodd" d="M11.2961 24C17.5348 24 20.7096 13.8 15.0615 9.6C9.41345 5.4 18.79 0 12.5513 0C6.31258 0 0 7.23532 0 13.2C0 19.1647 5.05745 24 11.2961 24Z" fill="#EE6F34"/>
<path fill-rule="evenodd" clip-rule="evenodd" d="M6.33337 13.9999C6.33337 17.6818 9.31814 20.6666 13 20.6666C16.6819 20.6666 19.6667 17.6818 19.6667 13.9999C19.6667 10.318 16.6819 7.33325 13 7.33325C9.31814 7.33325 6.33337 10.318 6.33337 13.9999ZM13.0352 9.92584H12.9726C12.7791 9.92584 12.6182 10.0748 12.6034 10.2678L12.2828 14.4355C12.2692 14.6126 12.3832 14.7745 12.5546 14.8212L15.9761 15.7543C16.0003 15.7609 16.0253 15.7643 16.0505 15.7643C16.2067 15.7643 16.3334 15.6376 16.3334 15.4814V15.326C16.3334 15.1931 16.2622 15.0703 16.1468 15.0044L13.7408 13.6295L13.4038 10.2594C13.3848 10.07 13.2255 9.92584 13.0352 9.92584Z" fill="#EE6F34"/>
</svg>
