<svg width="375" height="180" viewBox="0 0 375 180" fill="none" xmlns="http://www.w3.org/2000/svg">
<path d="M0 6H375V208H0V6Z" fill="#F4F4F4"/>
<path d="M-1.55356 9.82496C-2.12834 10.3098 -2.62148 10.7128 -3 11L-22 9.86207L-1.55356 9.82496C1.66795 7.10781 7.45422 1.82399 10 0L22 9.10345L34 0L46.8353 9.73714L47.1655 9.73654L58 1.51724L68 9.10345L78 1.51724L88.7351 9.6611L89.2662 9.66013L102 0L114.673 9.61402L115.329 9.61283L128 0L140.611 9.56695L141.391 9.56553L154 0L166.549 9.51987L167.453 9.51823L180 0L192 9.10345L204 0L216 9.10345L228 0L240.372 9.38589L241.631 9.38361L254 0L266.31 9.33882L267.693 9.33631L280 0L292.248 9.29175L293.755 9.28901L306 0L318.186 9.24467L319.818 9.24171L332 0L344.124 9.1976L345.88 9.19441L358 0L370.062 9.15052L371.942 9.14711L384 0L396 9.10345L371.942 9.14711L371 9.86207L370.062 9.15052L345.88 9.19441L345 9.86207L344.124 9.1976L319.818 9.24171L319 9.86207L318.186 9.24467L293.755 9.28901L293 9.86207L292.248 9.29175L267.693 9.33631L267 9.86207L266.31 9.33882L241.631 9.38361L241 9.86207L240.372 9.38589L167.453 9.51823L167 9.86207L166.549 9.51987L141.391 9.56553L141 9.86207L140.611 9.56695L115.329 9.61283L115 9.86207L114.673 9.61402L89.2662 9.66013L89 9.86207L88.7351 9.6611L47.1655 9.73654L47 9.86207L46.8353 9.73714L-1.55356 9.82496Z" fill="#F6F6F6"/>
</svg>
